<svg width="200" height="200" viewBox="0 0 200 200" fill="none" xmlns="http://www.w3.org/2000/svg">
  <!-- Plate -->
  <circle cx="100" cy="100" r="90" fill="#F5F5F5" stroke="#E0E0E0" stroke-width="3"/>
  <circle cx="100" cy="100" r="80" fill="none" stroke="#EEEEEE" stroke-width="1"/>
  
  <!-- Scrambled eggs base -->
  <path d="M60 90 C70 70, 130 70, 140 90 C150 110, 130 130, 100 130 C70 130, 50 110, 60 90Z" fill="#FFF9C4" stroke="#333333" stroke-width="2.5"/>
  
  <!-- Tomato pieces with faces -->
  <circle cx="75" cy="95" r="8" fill="#FF6347" stroke="#333333" stroke-width="1"/>
  <circle cx="115" cy="85" r="7" fill="#FF6347" stroke="#333333" stroke-width="1"/>
  <circle cx="95" cy="115" r="6" fill="#FF6347" stroke="#333333" stroke-width="1"/>
  
  <!-- Tiny faces on tomatoes -->
  <!-- Face 1 -->
  <circle cx="73" cy="94" r="1" fill="#333333"/>
  <circle cx="77" cy="94" r="1" fill="#333333"/>
  <path d="M73 97 Q75 98 77 97" stroke="#333333" stroke-width="0.8" stroke-linecap="round"/>
  
  <!-- Face 2 -->
  <circle cx="113" cy="84" r="1" fill="#333333"/>
  <circle cx="117" cy="84" r="1" fill="#333333"/>
  <path d="M113 87 Q115 88 117 87" stroke="#333333" stroke-width="0.8" stroke-linecap="round"/>
  
  <!-- Spinach pieces with cute details -->
  <path d="M85 90 C90 85, 95 90, 90 95 C85 100, 80 95, 85 90Z" fill="#228B22" stroke="#333333" stroke-width="1"/>
  <path d="M125 100 C130 95, 135 100, 130 105 C125 110, 120 105, 125 100Z" fill="#228B22" stroke="#333333" stroke-width="1"/>
  <path d="M105 105 C110 100, 115 105, 110 110 C105 115, 100 110, 105 105Z" fill="#228B22" stroke="#333333" stroke-width="1"/>
  
  <!-- Veins on spinach -->
  <path d="M85 90 L90 95" stroke="#1B5E20" stroke-width="0.5"/>
  <path d="M125 100 L130 105" stroke="#1B5E20" stroke-width="0.5"/>
  <path d="M105 105 L110 110" stroke="#1B5E20" stroke-width="0.5"/>
  
  <!-- Scrambled egg texture -->
  <path d="M70 95 C80 85, 90 95, 100 90" stroke="#FFEE58" stroke-width="2" stroke-linecap="round"/>
  <path d="M110 90 C120 85, 130 95, 125 105" stroke="#FFEE58" stroke-width="2" stroke-linecap="round"/>
  <path d="M80 105 C90 115, 110 115, 120 105" stroke="#FFEE58" stroke-width="2" stroke-linecap="round"/>
  
  <!-- Main cartoon face -->
  <!-- Eyes -->
  <circle cx="85" cy="85" r="4" fill="#333333"/>
  <circle cx="115" cy="85" r="4" fill="#333333"/>
  
  <!-- Smile -->
  <path d="M90 105 Q100 115 110 105" stroke="#333333" stroke-width="2.5" stroke-linecap="round" fill="none"/>
  
  <!-- Highlights -->
  <circle cx="80" cy="75" r="2" fill="#FFFFFF" fill-opacity="0.7"/>
  <circle cx="120" cy="75" r="2" fill="#FFFFFF" fill-opacity="0.7"/>
  
  <!-- Steam lines -->
  <path d="M70 60 Q75 50 80 60" stroke="#CCCCCC" stroke-width="2" stroke-linecap="round"/>
  <path d="M90 55 Q95 45 100 55" stroke="#CCCCCC" stroke-width="2" stroke-linecap="round"/>
  <path d="M110 55 Q115 45 120 55" stroke="#CCCCCC" stroke-width="2" stroke-linecap="round"/>
  
  <!-- Fork marks -->
  <path d="M75 100 L85 100" stroke="#FFE082" stroke-width="2" stroke-linecap="round"/>
  <path d="M110 100 L120 100" stroke="#FFE082" stroke-width="2" stroke-linecap="round"/>
</svg>

