<svg width="500" height="500" viewBox="0 0 500 500" fill="none" xmlns="http://www.w3.org/2000/svg">
  <!-- Cucumber texture dots -->
  <circle cx="50" cy="50" r="2" fill="#006400"/>
  <circle cx="100" cy="50" r="2" fill="#006400"/>
  <circle cx="150" cy="50" r="2" fill="#006400"/>
  <circle cx="200" cy="50" r="2" fill="#006400"/>
  <circle cx="250" cy="50" r="2" fill="#006400"/>
  <circle cx="300" cy="50" r="2" fill="#006400"/>
  <circle cx="350" cy="50" r="2" fill="#006400"/>
  <circle cx="400" cy="50" r="2" fill="#006400"/>
  <circle cx="450" cy="50" r="2" fill="#006400"/>
  
  <circle cx="75" cy="75" r="2" fill="#006400"/>
  <circle cx="125" cy="75" r="2" fill="#006400"/>
  <circle cx="175" cy="75" r="2" fill="#006400"/>
  <circle cx="225" cy="75" r="2" fill="#006400"/>
  <circle cx="275" cy="75" r="2" fill="#006400"/>
  <circle cx="325" cy="75" r="2" fill="#006400"/>
  <circle cx="375" cy="75" r="2" fill="#006400"/>
  <circle cx="425" cy="75" r="2" fill="#006400"/>
  
  <circle cx="50" cy="100" r="2" fill="#006400"/>
  <circle cx="100" cy="100" r="2" fill="#006400"/>
  <circle cx="150" cy="100" r="2" fill="#006400"/>
  <circle cx="200" cy="100" r="2" fill="#006400"/>
  <circle cx="250" cy="100" r="2" fill="#006400"/>
  <circle cx="300" cy="100" r="2" fill="#006400"/>
  <circle cx="350" cy="100" r="2" fill="#006400"/>
  <circle cx="400" cy="100" r="2" fill="#006400"/>
  <circle cx="450" cy="100" r="2" fill="#006400"/>
  
  <!-- Repeat pattern for more rows -->
</svg>

