<svg width="200" height="200" viewBox="0 0 200 200" fill="none" xmlns="http://www.w3.org/2000/svg">
  <!-- Plate -->
  <circle cx="100" cy="100" r="90" fill="#F5F5F5" stroke="#E0E0E0" stroke-width="3"/>
  <circle cx="100" cy="100" r="80" fill="none" stroke="#EEEEEE" stroke-width="1"/>
  
  <!-- French toast base -->
  <rect x="60" y="70" width="80" height="60" rx="5" fill="#D2691E" stroke="#333333" stroke-width="2.5"/>
  
  <!-- Toast texture -->
  <rect x="65" y="75" width="70" height="50" rx="3" fill="#CD853F" stroke="none"/>
  
  <!-- Egg coating -->
  <rect x="65" y="75" width="70" height="50" rx="3" fill="#FFF9C4" fill-opacity="0.3" stroke="none"/>
  
  <!-- Syrup -->
  <path d="M70 80 C90 75, 110 75, 130 80 L125 110 C105 115, 95 115, 75 110 L70 80Z" fill="#8B4513" fill-opacity="0.7"/>
  
  <!-- Syrup drips -->
  <path d="M80 110 L78 120" stroke="#8B4513" stroke-width="2" stroke-linecap="round"/>
  <path d="M100 115 L100 125" stroke="#8B4513" stroke-width="2" stroke-linecap="round"/>
  <path d="M120 110 L122 120" stroke="#8B4513" stroke-width="2" stroke-linecap="round"/>
  
  <!-- Butter pat with face -->
  <rect x="85" y="85" width="30" height="15" rx="3" fill="#FFFF99" stroke="#333333" stroke-width="1.5"/>
  
  <!-- Butter highlights -->
  <rect x="90" y="90" width="20" height="5" rx="2" fill="#FFFFCC"/>
  
  <!-- Butter face -->
  <circle cx="95" cy="87" r="2" fill="#333333"/>
  <circle cx="105" cy="87" r="2" fill="#333333"/>
  <path d="M95 93 Q100 95 105 93" stroke="#333333" stroke-width="1.5" stroke-linecap="round"/>
  
  <!-- Cartoon face on toast -->
  <!-- Eyes -->
  <circle cx="75" cy="95" r="3" fill="#333333"/>
  <circle cx="125" cy="95" r="3" fill="#333333"/>
  
  <!-- Smile -->
  <path d="M85 105 Q100 115 115 105" stroke="#333333" stroke-width="2" stroke-linecap="round" fill="none"/>
  
  <!-- Steam lines -->
  <path d="M70 60 Q75 50 80 60" stroke="#CCCCCC" stroke-width="2" stroke-linecap="round"/>
  <path d="M90 55 Q95 45 100 55" stroke="#CCCCCC" stroke-width="2" stroke-linecap="round"/>
  <path d="M110 55 Q115 45 120 55" stroke="#CCCCCC" stroke-width="2" stroke-linecap="round"/>
  
  <!-- Decorative elements -->
  <!-- Strawberry -->
  <path d="M140 90 C145 85, 150 90, 145 95 C140 100, 135 95, 140 90Z" fill="#FF0000" stroke="#333333" stroke-width="1"/>
  <path d="M142 87 L142 90" stroke="#228B22" stroke-width="1" stroke-linecap="round"/>
  <circle cx="138" cy="92" r="1" fill="#FFFFFF"/>
  <circle cx="142" cy="94" r="1" fill="#FFFFFF"/>
  
  <!-- Mint leaf -->
  <path d="M135 75 C140 70, 145 75, 140 80 C135 85, 130 80, 135 75Z" fill="#228B22" stroke="#333333" stroke-width="1"/>
  <path d="M135 75 L140 80" stroke="#1B5E20" stroke-width="0.5"/>
</svg>

