<svg width="1200" height="800" viewBox="0 0 1200 800" fill="none" xmlns="http://www.w3.org/2000/svg">
  <!-- Wall -->
  <rect width="1200" height="800" fill="#F5E6D8"/>
  
  <!-- Window -->
  <rect x="500" y="100" width="200" height="150" fill="#87CEEB"/>
  <rect x="500" y="100" width="200" height="150" stroke="#8B4513" stroke-width="10"/>
  <line x1="600" y1="100" x2="600" y2="250" stroke="#8B4513" stroke-width="10"/>
  <line x1="500" y1="175" x2="700" y2="175" stroke="#8B4513" stroke-width="10"/>
  
  <!-- Sink -->
  <rect x="450" y="300" width="300" height="100" fill="#C0C0C0"/>
  <rect x="500" y="320" width="200" height="60" fill="#A9A9A9"/>
  <circle cx="600" cy="300" r="10" fill="#808080"/>
  
  <!-- Fridge -->
  <rect x="100" y="100" width="200" height="400" fill="#FFFFFF"/>
  <rect x="100" y="100" width="200" height="400" stroke="#D3D3D3" stroke-width="5"/>
  <rect x="120" y="120" width="160" height="200" stroke="#D3D3D3" stroke-width="2"/>
  <rect x="120" y="340" width="160" height="140" stroke="#D3D3D3" stroke-width="2"/>
  <circle cx="270" cy="220" r="10" fill="#D3D3D3"/>
  <circle cx="270" cy="340" r="10" fill="#D3D3D3"/>
  
  <!-- Oven -->
  <rect x="900" y="300" width="200" height="200" fill="#D3D3D3"/>
  <rect x="920" y="320" width="160" height="100" fill="#000000" opacity="0.7"/>
  <circle cx="1000" cy="450" r="15" fill="#000000"/>
  <circle cx="950" cy="450" r="15" fill="#000000"/>
  <circle cx="1050" cy="450" r="15" fill="#000000"/>
  
  <!-- Cabinets -->
  <rect x="100" y="550" width="1000" height="50" fill="#8B4513"/>
  <rect x="100" y="550" width="1000" height="50" stroke="#A0522D" stroke-width="5"/>
  <rect x="150" y="560" width="100" height="30" fill="#A0522D"/>
  <rect x="300" y="560" width="100" height="30" fill="#A0522D"/>
  <rect x="450" y="560" width="100" height="30" fill="#A0522D"/>
  <rect x="600" y="560" width="100" height="30" fill="#A0522D"/>
  <rect x="750" y="560" width="100" height="30" fill="#A0522D"/>
  <rect x="900" y="560" width="100" height="30" fill="#A0522D"/>
  
  <!-- Upper Cabinets -->
  <rect x="100" y="50" width="1000" height="100" fill="#8B4513"/>
  <rect x="100" y="50" width="1000" height="100" stroke="#A0522D" stroke-width="5"/>
  <rect x="150" y="70" width="100" height="60" fill="#A0522D"/>
  <rect x="300" y="70" width="100" height="60" fill="#A0522D"/>
  <rect x="750" y="70" width="100" height="60" fill="#A0522D"/>
  <rect x="900" y="70" width="100" height="60" fill="#A0522D"/>
  
  <!-- Counter -->
  <rect x="100" y="600" width="1000" height="20" fill="#F5DEB3"/>
</svg>

